<svg xmlns="http://www.w3.org/2000/svg" xmlns:xlink="http://www.w3.org/1999/xlink" width="500" zoomAndPan="magnify" viewBox="0 0 375 374.999991" height="500" preserveAspectRatio="xMidYMid meet" version="1.0"><defs><g/><clipPath id="0f8ee68634"><path d="M 106 189 L 138 189 L 138 212.796875 L 106 212.796875 Z M 106 189 " clip-rule="nonzero"/></clipPath><clipPath id="9138937e0c"><path d="M 237 189 L 269 189 L 269 212.796875 L 237 212.796875 Z M 237 189 " clip-rule="nonzero"/></clipPath><clipPath id="49684b3ac9"><path d="M 108 111.546875 L 267 111.546875 L 267 177 L 108 177 Z M 108 111.546875 " clip-rule="nonzero"/></clipPath><clipPath id="562c91f306"><path d="M 105.300781 154 L 269.550781 154 L 269.550781 209 L 105.300781 209 Z M 105.300781 154 " clip-rule="nonzero"/></clipPath></defs><rect x="-37.5" width="450" fill="#ffffff" y="-37.499999" height="449.999989" fill-opacity="1"/><rect x="-37.5" width="450" fill="#0a131e" y="-37.499999" height="449.999989" fill-opacity="1"/><path fill="#59e1ff" d="M 117.871094 172.628906 C 124.425781 175.101562 134.378906 176.710938 137.527344 176.894531 C 140.671875 177.082031 141.359375 176.335938 141.359375 176.335938 C 131.21875 174.417969 112.050781 167.433594 112.050781 167.433594 C 112.050781 167.433594 111.3125 170.15625 117.871094 172.628906 Z M 117.871094 172.628906 " fill-opacity="1" fill-rule="nonzero"/><path fill="#59e1ff" d="M 262.929688 167.4375 C 262.929688 167.4375 243.761719 174.425781 233.621094 176.339844 C 233.621094 176.339844 234.300781 177.082031 237.453125 176.898438 C 240.609375 176.714844 250.558594 175.105469 257.109375 172.632812 C 263.660156 170.160156 262.929688 167.4375 262.929688 167.4375 Z M 262.929688 167.4375 " fill-opacity="1" fill-rule="nonzero"/><g clip-path="url(#0f8ee68634)"><path fill="#fafafa" d="M 106.800781 189.878906 L 107.238281 207.53125 C 107.238281 207.851562 107.269531 208.171875 107.332031 208.488281 C 107.394531 208.804688 107.488281 209.109375 107.613281 209.410156 C 107.738281 209.707031 107.886719 209.988281 108.066406 210.257812 C 108.246094 210.523438 108.449219 210.773438 108.675781 211 C 108.90625 211.230469 109.152344 211.433594 109.421875 211.613281 C 109.6875 211.792969 109.972656 211.941406 110.269531 212.066406 C 110.566406 212.191406 110.875 212.285156 111.1875 212.347656 C 111.503906 212.410156 111.824219 212.441406 112.148438 212.441406 L 132.332031 212.441406 C 132.683594 212.441406 133.027344 212.410156 133.371094 212.339844 C 133.714844 212.273438 134.046875 212.171875 134.367188 212.039062 C 134.691406 211.902344 134.996094 211.738281 135.285156 211.546875 C 135.578125 211.351562 135.847656 211.132812 136.09375 210.882812 C 136.339844 210.636719 136.558594 210.367188 136.753906 210.078125 C 136.949219 209.789062 137.113281 209.480469 137.246094 209.160156 C 137.378906 208.835938 137.480469 208.503906 137.546875 208.160156 C 137.617188 207.820312 137.648438 207.472656 137.648438 207.125 C 137.648438 207.125 123.804688 205.277344 115.207031 201.628906 C 108.394531 198.734375 106.800781 189.878906 106.800781 189.878906 Z M 106.800781 189.878906 " fill-opacity="1" fill-rule="nonzero"/></g><g clip-path="url(#9138937e0c)"><path fill="#fafafa" d="M 259.78125 201.632812 C 251.183594 205.277344 237.335938 207.132812 237.335938 207.132812 C 237.335938 207.480469 237.371094 207.828125 237.441406 208.167969 C 237.507812 208.511719 237.609375 208.84375 237.742188 209.164062 C 237.875 209.484375 238.039062 209.792969 238.234375 210.082031 C 238.429688 210.371094 238.648438 210.640625 238.894531 210.886719 C 239.140625 211.132812 239.410156 211.351562 239.699219 211.546875 C 239.988281 211.742188 240.296875 211.90625 240.617188 212.039062 C 240.941406 212.171875 241.273438 212.273438 241.613281 212.339844 C 241.957031 212.410156 242.300781 212.441406 242.648438 212.441406 L 262.839844 212.441406 C 263.164062 212.441406 263.484375 212.410156 263.800781 212.347656 C 264.117188 212.285156 264.425781 212.191406 264.722656 212.070312 C 265.019531 211.945312 265.304688 211.792969 265.574219 211.613281 C 265.839844 211.433594 266.089844 211.230469 266.316406 211.003906 C 266.546875 210.773438 266.75 210.527344 266.929688 210.257812 C 267.109375 209.988281 267.261719 209.707031 267.382812 209.40625 C 267.507812 209.109375 267.601562 208.800781 267.664062 208.484375 C 267.726562 208.167969 267.757812 207.847656 267.757812 207.523438 L 268.191406 189.875 C 268.191406 189.875 266.59375 198.734375 259.78125 201.632812 Z M 259.78125 201.632812 " fill-opacity="1" fill-rule="nonzero"/></g><path fill="#fafafa" d="M 187.492188 199.089844 C 169.761719 199.375 154.472656 194.269531 154.472656 194.269531 C 167.359375 201.195312 187.492188 201.152344 187.492188 201.152344 C 187.492188 201.152344 207.621094 201.195312 220.511719 194.269531 C 220.511719 194.269531 205.726562 199.273438 187.492188 199.089844 Z M 187.492188 199.089844 " fill-opacity="1" fill-rule="nonzero"/><path fill="#fafafa" d="M 214.574219 189.511719 C 205.425781 192.765625 187.492188 192.875 187.492188 192.875 C 187.492188 192.875 169.558594 192.765625 160.410156 189.503906 C 152.019531 186.511719 145.449219 179.800781 145.449219 179.800781 C 145.449219 179.800781 152 187.964844 159.792969 191.179688 C 167.585938 194.398438 187.492188 194.765625 187.492188 194.765625 C 187.492188 194.765625 207.402344 194.394531 215.195312 191.179688 C 222.984375 187.96875 229.539062 179.800781 229.539062 179.800781 C 229.539062 179.800781 222.964844 186.511719 214.574219 189.511719 Z M 214.574219 189.511719 " fill-opacity="1" fill-rule="nonzero"/><path fill="#fafafa" d="M 187.492188 189.054688 C 187.492188 189.054688 207.402344 188.683594 215.195312 185.46875 C 219.789062 183.574219 223.949219 179.957031 226.59375 177.308594 C 226.25 177.382812 225.792969 177.472656 225.601562 177.515625 C 222.886719 179.628906 218.980469 182.226562 214.574219 183.800781 C 205.429688 187.054688 187.496094 187.164062 187.496094 187.164062 C 187.496094 187.164062 169.558594 187.054688 160.414062 183.792969 C 156 182.226562 152.09375 179.625 149.382812 177.511719 C 149.050781 177.453125 148.722656 177.386719 148.390625 177.3125 C 151.035156 179.960938 155.195312 183.574219 159.792969 185.472656 C 167.589844 188.6875 187.492188 189.054688 187.492188 189.054688 Z M 187.492188 189.054688 " fill-opacity="1" fill-rule="nonzero"/><g clip-path="url(#49684b3ac9)"><path fill="#fafafa" d="M 116.632812 160.570312 C 123.683594 164.066406 151.074219 176.402344 187.492188 176.339844 C 223.914062 176.402344 251.304688 164.0625 258.355469 160.570312 C 264.875 157.34375 267.628906 154.078125 266.332031 150.367188 C 265.03125 146.660156 255.386719 141.464844 255.386719 141.464844 C 255.386719 141.464844 254.269531 140.347656 245.371094 139.980469 C 245.371094 139.980469 245.121094 139.5625 244.6875 138.84375 C 245.621094 138.992188 246.539062 139.21875 247.4375 139.515625 C 253.65625 141.464844 261.167969 138.3125 260.519531 135.066406 C 259.875 131.820312 252.355469 130.523438 248.925781 131.171875 C 245.496094 131.820312 245.402344 135.902344 245.402344 135.902344 L 242.871094 135.902344 C 239.648438 130.765625 233.945312 122.121094 229.667969 118.097656 C 223.355469 112.15625 217.296875 111.910156 187.492188 111.546875 C 157.6875 111.917969 151.628906 112.164062 145.324219 118.097656 C 141.039062 122.125 135.339844 130.765625 132.117188 135.90625 L 129.585938 135.90625 C 129.585938 135.90625 129.492188 131.824219 126.0625 131.175781 C 122.628906 130.527344 115.117188 131.828125 114.464844 135.070312 C 113.816406 138.3125 121.332031 141.46875 127.546875 139.519531 C 128.449219 139.222656 129.367188 139 130.300781 138.847656 C 129.863281 139.566406 129.617188 139.988281 129.617188 139.988281 C 120.71875 140.351562 119.601562 141.464844 119.601562 141.464844 C 119.597656 141.464844 109.964844 146.660156 108.652344 150.367188 C 107.34375 154.078125 110.113281 157.34375 116.632812 160.570312 Z M 146.617188 147.582031 C 146.894531 150.546875 148.375 158.894531 148.375 158.894531 L 143.460938 143.5 L 149.769531 143.5 C 149.769531 143.5 146.335938 144.617188 146.617188 147.582031 Z M 187.492188 174.660156 C 187.492188 174.660156 168.570312 173.46875 154.101562 168.59375 C 154.101562 168.59375 176.175781 171.136719 187.492188 170.578125 C 198.808594 171.136719 220.882812 168.59375 220.882812 168.59375 C 206.414062 173.480469 187.492188 174.660156 187.492188 174.660156 Z M 228.023438 158.894531 C 228.023438 158.894531 229.507812 150.546875 229.785156 147.578125 C 230.0625 144.609375 226.632812 143.496094 226.632812 143.496094 L 232.945312 143.496094 Z M 150.019531 118.023438 C 155.300781 114.746094 162.648438 113.964844 187.492188 113.964844 C 210.183594 113.964844 220.339844 114.671875 224.867188 117.945312 C 231.199219 121.660156 237.367188 133.0625 242.84375 141.722656 L 187.492188 142.949219 L 132.335938 141.722656 C 137.8125 133.0625 143.683594 121.742188 150.019531 118.023438 Z M 150.019531 118.023438 " fill-opacity="1" fill-rule="nonzero"/></g><g clip-path="url(#562c91f306)"><path fill="#fafafa" d="M 267.472656 154.277344 C 266.976562 159.3125 260.117188 162.105469 242.308594 168.601562 C 218.425781 177.3125 187.488281 177.636719 187.488281 177.636719 C 187.488281 177.636719 156.558594 177.3125 132.671875 168.601562 C 114.867188 162.105469 108.015625 159.3125 107.511719 154.277344 C 107.511719 154.277344 105.316406 157.09375 105.625 167.683594 C 105.964844 179.308594 105.996094 194.023438 114.53125 199.464844 C 120.878906 203.515625 142.289062 206.878906 153.136719 206.90625 C 153.140625 206.90625 153.144531 206.910156 153.152344 206.910156 C 189.53125 211.316406 221.964844 206.910156 221.964844 206.910156 C 232.847656 206.859375 254.125 203.5 260.460938 199.464844 C 269.003906 194.023438 269.027344 179.308594 269.367188 167.683594 C 269.667969 157.09375 267.472656 154.277344 267.472656 154.277344 Z M 266.667969 167.558594 C 265.085938 169.164062 265.652344 169.785156 263.421875 180.914062 C 261.195312 192.046875 238.691406 193.898438 238.691406 193.898438 C 243.144531 184.128906 251.917969 175.84375 251.917969 175.84375 C 234.824219 182.84375 221.042969 195.742188 216.785156 202.257812 C 211.648438 203.136719 202.589844 204.226562 189.148438 204.226562 C 172.097656 204.226562 161.53125 201.894531 157.019531 200.613281 C 151.753906 193.757812 138.820312 182.296875 123.066406 175.84375 C 123.066406 175.84375 131.847656 184.128906 136.300781 193.898438 C 136.300781 193.898438 113.792969 192.042969 111.566406 180.914062 C 109.339844 169.785156 109.902344 169.164062 108.324219 167.558594 C 107.886719 165.90625 107.683594 164.226562 107.714844 162.519531 C 107.714844 162.519531 128.511719 178.320312 187.492188 179.371094 C 246.472656 178.320312 267.269531 162.519531 267.269531 162.519531 C 267.304688 164.226562 267.101562 165.90625 266.667969 167.558594 Z M 266.667969 167.558594 " fill-opacity="1" fill-rule="nonzero"/></g><g fill="#fafafa" fill-opacity="1"><g transform="translate(90.574217, 250.996815)"><g><path d="M 3.109375 0 L 11.507812 0 L 11.507812 -14.910156 L 17.179688 -6.972656 L 22.679688 -6.972656 L 28.308594 -14.867188 L 28.308594 0 L 36.707031 0 L 36.707031 -29.398438 L 29.820312 -29.398438 L 19.90625 -15.414062 L 10.039062 -29.398438 L 3.109375 -29.398438 Z M 3.109375 0 "/></g></g></g><g fill="#fafafa" fill-opacity="1"><g transform="translate(130.390212, 250.996815)"><g><path d="M 3.109375 0 L 23.730469 0 L 23.730469 -6.929688 L 11.507812 -6.929688 L 11.507812 -11.464844 L 22.132812 -11.464844 L 22.132812 -18.269531 L 11.507812 -18.269531 L 11.507812 -22.554688 L 23.269531 -22.554688 L 23.269531 -29.398438 L 3.109375 -29.398438 Z M 3.109375 0 "/></g></g></g><g fill="#fafafa" fill-opacity="1"><g transform="translate(156.010214, 250.996815)"><g><path d="M 9.660156 0 L 18.101562 0 L 23.4375 -16.339844 L 28.769531 0 L 37.210938 0 L 46.660156 -29.398438 L 37.757812 -29.398438 L 35.699219 -22.847656 L 32.675781 -13.441406 L 27.46875 -29.398438 L 19.402344 -29.398438 L 17.21875 -22.847656 L 14.238281 -13.691406 L 11.257812 -22.847656 L 9.199219 -29.398438 L 0.210938 -29.398438 Z M 9.660156 0 "/></g></g></g><g fill="#fafafa" fill-opacity="1"><g transform="translate(202.882201, 250.996815)"><g><path d="M 3.109375 0 L 11.59375 0 L 11.59375 -29.398438 L 3.109375 -29.398438 Z M 3.109375 0 "/></g></g></g><g fill="#fafafa" fill-opacity="1"><g transform="translate(217.582193, 250.996815)"><g><path d="M 3.109375 0 L 11.507812 0 L 11.507812 -14.992188 L 22.679688 0 L 29.566406 0 L 29.566406 -29.398438 L 21.210938 -29.398438 L 21.210938 -14.488281 L 10.039062 -29.398438 L 3.109375 -29.398438 Z M 3.109375 0 "/></g></g></g><g fill="#fafafa" fill-opacity="1"><g transform="translate(250.300186, 250.996815)"><g><path d="M 17.136719 0.628906 C 27.257812 0.628906 33.601562 -6.71875 32.675781 -17.050781 L 15.664062 -17.050781 L 15.664062 -11.089844 L 23.773438 -11.089844 C 22.933594 -8.609375 20.578125 -6.929688 17.21875 -6.929688 C 12.515625 -6.929688 9.785156 -10.246094 9.785156 -14.699219 C 9.785156 -19.320312 12.769531 -22.46875 17.136719 -22.46875 C 19.738281 -22.46875 21.964844 -21.335938 23.101562 -19.488281 L 32.128906 -19.488281 C 30.40625 -25.914062 24.445312 -30.03125 17.011719 -30.03125 C 7.769531 -30.03125 1.429688 -23.730469 1.429688 -14.699219 C 1.429688 -5.628906 7.8125 0.628906 17.136719 0.628906 Z M 17.136719 0.628906 "/></g></g></g><g fill="#59e1ff" fill-opacity="1"><g transform="translate(79.266444, 270.461759)"><g><path d="M 8.84375 -5.671875 L 7 -5.671875 C 7.007812 -6.148438 6.875 -6.523438 6.59375 -6.796875 C 6.320312 -7.078125 5.945312 -7.21875 5.46875 -7.21875 C 4.769531 -7.21875 4.160156 -6.957031 3.640625 -6.4375 C 3.128906 -5.914062 2.796875 -5.1875 2.640625 -4.25 C 2.492188 -3.34375 2.578125 -2.660156 2.890625 -2.203125 C 3.203125 -1.742188 3.675781 -1.515625 4.3125 -1.515625 C 4.832031 -1.515625 5.296875 -1.640625 5.703125 -1.890625 C 6.109375 -2.148438 6.390625 -2.515625 6.546875 -2.984375 L 8.40625 -2.984375 C 8.25 -2.453125 7.976562 -1.945312 7.59375 -1.46875 C 7.21875 -1 6.742188 -0.613281 6.171875 -0.3125 C 5.597656 -0.0195312 4.941406 0.125 4.203125 0.125 C 3.410156 0.125 2.726562 -0.0546875 2.15625 -0.421875 C 1.59375 -0.785156 1.1875 -1.3125 0.9375 -2 C 0.695312 -2.6875 0.65625 -3.507812 0.8125 -4.46875 C 0.96875 -5.40625 1.269531 -6.195312 1.71875 -6.84375 C 2.175781 -7.5 2.734375 -7.992188 3.390625 -8.328125 C 4.046875 -8.671875 4.75 -8.84375 5.5 -8.84375 C 6.1875 -8.84375 6.785156 -8.71875 7.296875 -8.46875 C 7.816406 -8.21875 8.210938 -7.859375 8.484375 -7.390625 C 8.753906 -6.921875 8.875 -6.347656 8.84375 -5.671875 Z M 8.84375 -5.671875 "/></g></g></g><g fill="#59e1ff" fill-opacity="1"><g transform="translate(95.855149, 270.461759)"><g><path d="M 1.71875 0 L -0.265625 0 L 4.203125 -8.734375 L 6.578125 -8.734375 L 8.140625 0 L 6.15625 0 L 5.84375 -1.984375 L 2.703125 -1.984375 Z M 3.40625 -3.4375 L 5.625 -3.4375 L 5.09375 -6.734375 L 5.03125 -6.734375 Z M 3.40625 -3.4375 "/></g></g></g><g fill="#59e1ff" fill-opacity="1"><g transform="translate(112.392767, 270.461759)"><g><path d="M 0.21875 0 L 1.65625 -8.734375 L 5.109375 -8.734375 C 6.097656 -8.734375 6.820312 -8.472656 7.28125 -7.953125 C 7.738281 -7.429688 7.898438 -6.738281 7.765625 -5.875 C 7.660156 -5.28125 7.4375 -4.769531 7.09375 -4.34375 C 6.757812 -3.925781 6.328125 -3.609375 5.796875 -3.390625 L 7.09375 0 L 5.0625 0 L 3.921875 -3.09375 L 2.578125 -3.09375 L 2.0625 0 Z M 2.828125 -4.578125 L 4.078125 -4.578125 C 5.117188 -4.578125 5.710938 -5.007812 5.859375 -5.875 C 6.003906 -6.769531 5.554688 -7.21875 4.515625 -7.21875 L 3.265625 -7.21875 Z M 2.828125 -4.578125 "/></g></g></g><g fill="#59e1ff" fill-opacity="1"><g transform="translate(127.904403, 270.461759)"><g/></g></g><g fill="#59e1ff" fill-opacity="1"><g transform="translate(138.25631, 270.461759)"><g><path d="M 1.65625 -8.734375 L 3.9375 -8.734375 L 5.375 -2.859375 L 5.46875 -2.859375 L 8.84375 -8.734375 L 11.125 -8.734375 L 9.671875 0 L 7.890625 0 L 8.828125 -5.6875 L 8.75 -5.6875 L 5.5625 -0.046875 L 4.34375 -0.046875 L 3.03125 -5.703125 L 2.953125 -5.703125 L 2 0 L 0.21875 0 Z M 1.65625 -8.734375 "/></g></g></g><g fill="#59e1ff" fill-opacity="1"><g transform="translate(156.794816, 270.461759)"><g><path d="M 1.71875 0 L -0.265625 0 L 4.203125 -8.734375 L 6.578125 -8.734375 L 8.140625 0 L 6.15625 0 L 5.84375 -1.984375 L 2.703125 -1.984375 Z M 3.40625 -3.4375 L 5.625 -3.4375 L 5.09375 -6.734375 L 5.03125 -6.734375 Z M 3.40625 -3.4375 "/></g></g></g><g fill="#59e1ff" fill-opacity="1"><g transform="translate(173.332432, 270.461759)"><g><path d="M 8.96875 -8.734375 L 7.515625 0 L 5.921875 0 L 3.046875 -5.5 L 2.96875 -5.5 L 2.0625 0 L 0.21875 0 L 1.65625 -8.734375 L 3.28125 -8.734375 L 6.140625 -3.234375 L 6.21875 -3.234375 L 7.125 -8.734375 Z M 8.96875 -8.734375 "/></g></g></g><g fill="#59e1ff" fill-opacity="1"><g transform="translate(189.716788, 270.461759)"><g><path d="M 1.71875 0 L -0.265625 0 L 4.203125 -8.734375 L 6.578125 -8.734375 L 8.140625 0 L 6.15625 0 L 5.84375 -1.984375 L 2.703125 -1.984375 Z M 3.40625 -3.4375 L 5.625 -3.4375 L 5.09375 -6.734375 L 5.03125 -6.734375 Z M 3.40625 -3.4375 "/></g></g></g><g fill="#59e1ff" fill-opacity="1"><g transform="translate(206.254404, 270.461759)"><g><path d="M 6.984375 -5.90625 C 6.929688 -6.3125 6.78125 -6.628906 6.53125 -6.859375 C 6.289062 -7.097656 5.9375 -7.21875 5.46875 -7.21875 C 5.019531 -7.21875 4.597656 -7.101562 4.203125 -6.875 C 3.816406 -6.65625 3.488281 -6.332031 3.21875 -5.90625 C 2.945312 -5.488281 2.757812 -4.976562 2.65625 -4.375 C 2.507812 -3.457031 2.585938 -2.75 2.890625 -2.25 C 3.191406 -1.757812 3.691406 -1.515625 4.390625 -1.515625 C 5.003906 -1.515625 5.519531 -1.671875 5.9375 -1.984375 C 6.363281 -2.304688 6.625 -2.738281 6.71875 -3.28125 L 4.859375 -3.28125 L 5.078125 -4.671875 L 8.734375 -4.671875 L 8.546875 -3.578125 C 8.421875 -2.804688 8.148438 -2.144531 7.734375 -1.59375 C 7.328125 -1.039062 6.8125 -0.613281 6.1875 -0.3125 C 5.570312 -0.0195312 4.894531 0.125 4.15625 0.125 C 3.34375 0.125 2.65625 -0.0546875 2.09375 -0.421875 C 1.539062 -0.785156 1.144531 -1.300781 0.90625 -1.96875 C 0.675781 -2.632812 0.632812 -3.429688 0.78125 -4.359375 C 0.9375 -5.296875 1.25 -6.097656 1.71875 -6.765625 C 2.195312 -7.441406 2.773438 -7.957031 3.453125 -8.3125 C 4.128906 -8.664062 4.847656 -8.84375 5.609375 -8.84375 C 6.265625 -8.84375 6.835938 -8.71875 7.328125 -8.46875 C 7.828125 -8.21875 8.207031 -7.867188 8.46875 -7.421875 C 8.738281 -6.984375 8.867188 -6.476562 8.859375 -5.90625 Z M 6.984375 -5.90625 "/></g></g></g><g fill="#59e1ff" fill-opacity="1"><g transform="translate(222.945279, 270.461759)"><g><path d="M 0.21875 0 L 1.65625 -8.734375 L 7.546875 -8.734375 L 7.28125 -7.203125 L 3.25 -7.203125 L 2.90625 -5.125 L 6.640625 -5.125 L 6.390625 -3.609375 L 2.65625 -3.609375 L 2.3125 -1.515625 L 6.359375 -1.515625 L 6.109375 0 Z M 0.21875 0 "/></g></g></g><g fill="#59e1ff" fill-opacity="1"><g transform="translate(237.860901, 270.461759)"><g><path d="M 1.65625 -8.734375 L 3.9375 -8.734375 L 5.375 -2.859375 L 5.46875 -2.859375 L 8.84375 -8.734375 L 11.125 -8.734375 L 9.671875 0 L 7.890625 0 L 8.828125 -5.6875 L 8.75 -5.6875 L 5.5625 -0.046875 L 4.34375 -0.046875 L 3.03125 -5.703125 L 2.953125 -5.703125 L 2 0 L 0.21875 0 Z M 1.65625 -8.734375 "/></g></g></g><g fill="#59e1ff" fill-opacity="1"><g transform="translate(256.399401, 270.461759)"><g><path d="M 0.21875 0 L 1.65625 -8.734375 L 7.546875 -8.734375 L 7.28125 -7.203125 L 3.25 -7.203125 L 2.90625 -5.125 L 6.640625 -5.125 L 6.390625 -3.609375 L 2.65625 -3.609375 L 2.3125 -1.515625 L 6.359375 -1.515625 L 6.109375 0 Z M 0.21875 0 "/></g></g></g><g fill="#59e1ff" fill-opacity="1"><g transform="translate(271.315023, 270.461759)"><g><path d="M 8.96875 -8.734375 L 7.515625 0 L 5.921875 0 L 3.046875 -5.5 L 2.96875 -5.5 L 2.0625 0 L 0.21875 0 L 1.65625 -8.734375 L 3.28125 -8.734375 L 6.140625 -3.234375 L 6.21875 -3.234375 L 7.125 -8.734375 Z M 8.96875 -8.734375 "/></g></g></g><g fill="#59e1ff" fill-opacity="1"><g transform="translate(287.699391, 270.461759)"><g><path d="M 1.078125 -7.203125 L 1.328125 -8.734375 L 8.5 -8.734375 L 8.234375 -7.203125 L 5.5625 -7.203125 L 4.375 0 L 2.546875 0 L 3.75 -7.203125 Z M 1.078125 -7.203125 "/></g></g></g></svg>